<?xml version="1.0" standalone="no"?>
<!DOCTYPE svg PUBLIC "-//W3C//DTD SVG 20010904//EN"
 "http://www.w3.org/TR/2001/REC-SVG-20010904/DTD/svg10.dtd">
<svg version="1.0" xmlns="http://www.w3.org/2000/svg"
 width="1361.000000pt" height="657.000000pt" viewBox="0 0 1361.000000 657.000000"
 preserveAspectRatio="xMidYMid meet">

<g transform="translate(0.000000,657.000000) scale(0.100000,-0.100000)"
fill="#000000" stroke="none">
<path d="M9190 6540 c19 -16 80 -58 135 -92 55 -34 213 -137 350 -228 422
-281 802 -517 1165 -725 85 -48 165 -94 177 -102 l23 -13 -27 -73 c-14 -39
-48 -116 -75 -171 -27 -54 -48 -99 -46 -101 16 -14 392 -213 577 -306 737
-372 1381 -593 1989 -683 l152 -23 0 1273 0 1274 -2227 0 -2227 0 34 -30z"/>
</g>
</svg>
