<svg xmlns="http://www.w3.org/2000/svg" xmlns:xlink="http://www.w3.org/1999/xlink" width="113.955" height="28" viewBox="0 0 113.955 28">
  <defs>
    <clipPath id="clip-path">
      <rect id="Rectángulo_6875" data-name="Rectángulo 6875" width="113.955" height="28" fill="none"/>
    </clipPath>
  </defs>
  <g id="Grupo_14491" data-name="Grupo 14491" transform="translate(0 0)">
    <rect id="Rectángulo_6866" data-name="Rectángulo 6866" width="0.864" height="5.205" transform="translate(62.175 6.073)" fill="#fff"/>
    <g id="Grupo_14489" data-name="Grupo 14489" transform="translate(0 0)">
      <g id="Grupo_14488" data-name="Grupo 14488" transform="translate(0 0)" clip-path="url(#clip-path)">
        <path id="Trazado_8413" data-name="Trazado 8413" d="M143.861,17.689a2.3,2.3,0,0,1,.052.561v2.105h.864V18a2.392,2.392,0,0,0-.116-.739.937.937,0,0,0-.436-.54,1.4,1.4,0,0,0-.7-.18,2.259,2.259,0,0,0-1.2.406v-.328h-.862v3.738h.862V17.594a.835.835,0,0,1,.384-.282,1.388,1.388,0,0,1,.471-.083.792.792,0,0,1,.488.125.5.5,0,0,1,.194.334" transform="translate(-77.63 -9.076)" fill="#fff"/>
        <path id="Trazado_8414" data-name="Trazado 8414" d="M151.858,18.353a1.969,1.969,0,0,0-.586-.237l-.122-.025a1.322,1.322,0,0,1-.362-.148.454.454,0,0,1-.18-.222l-.035-.164a.447.447,0,0,1,.1-.31.436.436,0,0,1,.212-.142,1.254,1.254,0,0,1,.319-.03,1.674,1.674,0,0,1,.225.009c.046,0,.116.016.207.034l.355.077.145-.543a1.8,1.8,0,0,0-.431-.1,1.713,1.713,0,0,0-.268-.034h-.208a2.331,2.331,0,0,0-.478.051,1.125,1.125,0,0,0-.449.207,1.046,1.046,0,0,0-.32.413,1.22,1.22,0,0,0-.116.5,1.087,1.087,0,0,0,.122.525,1,1,0,0,0,.526.447l.76.242a.535.535,0,0,1,.2.154.314.314,0,0,1,.051.181.446.446,0,0,1-.03.232.487.487,0,0,1-.126.2.412.412,0,0,1-.187.091,1.113,1.113,0,0,1-.186.02h-.139c-.07,0-.131,0-.186,0s-.182-.014-.378-.035l-.426-.08-.155.551a1.474,1.474,0,0,0,.482.139,3.115,3.115,0,0,0,.553.077,2.146,2.146,0,0,0,.7-.138,1.212,1.212,0,0,0,.54-.375,1.39,1.39,0,0,0,.216-.4,1.246,1.246,0,0,0,.056-.358,1.3,1.3,0,0,0-.09-.409.776.776,0,0,0-.308-.4" transform="translate(-82.155 -9.066)" fill="#fff"/>
        <path id="Trazado_8415" data-name="Trazado 8415" d="M156.2,18.183v.094a2.7,2.7,0,0,0,.056.573.614.614,0,0,0,.259.392,1.084,1.084,0,0,0,.6.138,1.846,1.846,0,0,0,.276-.018c.086-.012.175-.026.268-.042a2.308,2.308,0,0,0,.5-.154l-.173-.512a.908.908,0,0,1-.414.1.527.527,0,0,1-.371-.128.48.48,0,0,1-.138-.374V16.09h.907v-.535h-.907V14.6l-.863.233v.718h-.526v.535h.526Z" transform="translate(-85.431 -8.014)" fill="#fff"/>
        <rect id="Rectángulo_6867" data-name="Rectángulo 6867" width="0.863" height="3.729" transform="translate(73.087 7.55)" fill="#fff"/>
        <path id="Trazado_8416" data-name="Trazado 8416" d="M162.332,13.583a.441.441,0,0,0,.347-.148.5.5,0,0,0,.132-.346.5.5,0,0,0-.479-.491.5.5,0,0,0-.5.491.5.5,0,0,0,.5.494" transform="translate(-88.81 -6.913)" fill="#fff"/>
        <path id="Trazado_8417" data-name="Trazado 8417" d="M165.194,18.183v.094a2.692,2.692,0,0,0,.056.573.616.616,0,0,0,.26.392,1.074,1.074,0,0,0,.6.138,1.85,1.85,0,0,0,.275-.018q.13-.018.268-.042a2.284,2.284,0,0,0,.5-.154l-.171-.512a.913.913,0,0,1-.416.1.521.521,0,0,1-.37-.128.476.476,0,0,1-.14-.374V16.09h.907v-.535h-.907V14.6l-.863.233v.718h-.526v.535h.526Z" transform="translate(-90.364 -8.014)" fill="#fff"/>
        <path id="Trazado_8418" data-name="Trazado 8418" d="M171.448,20.339a1.46,1.46,0,0,0,.356.155,1.408,1.408,0,0,0,.355.043,2.238,2.238,0,0,0,1.179-.423v.337h.863V16.713h-.863v2.753a.8.8,0,0,1-.391.277,1.164,1.164,0,0,1-.451.088.838.838,0,0,1-.494-.123.677.677,0,0,1-.2-.323,2.4,2.4,0,0,1-.048-.572v-2.1h-.864v2.342a2.509,2.509,0,0,0,.105.75,1.1,1.1,0,0,0,.457.534" transform="translate(-93.776 -9.171)" fill="#fff"/>
        <path id="Trazado_8419" data-name="Trazado 8419" d="M179.37,18.183v.094a2.659,2.659,0,0,0,.057.573.619.619,0,0,0,.258.392,1.084,1.084,0,0,0,.6.138,1.856,1.856,0,0,0,.277-.018c.087-.012.175-.026.267-.042a2.284,2.284,0,0,0,.5-.154l-.171-.512a.915.915,0,0,1-.414.1.528.528,0,0,1-.372-.128.48.48,0,0,1-.138-.374V16.09h.906v-.535h-.906V14.6l-.865.233v.718h-.527v.535h.527Z" transform="translate(-98.143 -8.014)" fill="#fff"/>
        <path id="Trazado_8420" data-name="Trazado 8420" d="M185.254,20.018a2.9,2.9,0,0,0,.325.216,1.308,1.308,0,0,0,.28.112,1.866,1.866,0,0,0,.57.086,2.114,2.114,0,0,0,.69-.138,1.55,1.55,0,0,0,.674-.473,1.66,1.66,0,0,0,.368-.667,2.4,2.4,0,0,0,.081-.555,2.553,2.553,0,0,0-.142-.789,1.885,1.885,0,0,0-.41-.719,1.7,1.7,0,0,0-.612-.421,1.65,1.65,0,0,0-.683-.147l-.275.027-.329.093a3.437,3.437,0,0,0-.482.232,1.7,1.7,0,0,0-.743,1.379,2.983,2.983,0,0,0,.177,1.012,1.6,1.6,0,0,0,.512.754m.265-2.5a.722.722,0,0,1,.318-.337.812.812,0,0,1,.246-.088h.129a1.033,1.033,0,0,1,.6.212,1.283,1.283,0,0,1,.444.712,3.19,3.19,0,0,1,.147.882,1.548,1.548,0,0,1-.154.526.754.754,0,0,1-.333.338.864.864,0,0,1-.359.1,1.013,1.013,0,0,1-.5-.192,1.3,1.3,0,0,1-.49-.7,2.786,2.786,0,0,1-.179-.918,1.127,1.127,0,0,1,.134-.54" transform="translate(-101.283 -9.066)" fill="#fff"/>
        <path id="Trazado_8421" data-name="Trazado 8421" d="M197.193,14.643l2.923,4.017.894,0V13.459h-.693v4.024L197.4,13.459h-.9v5.206h.692Z" transform="translate(-107.833 -7.386)" fill="#fff"/>
        <path id="Trazado_8422" data-name="Trazado 8422" d="M207.73,20.189a.75.75,0,0,0,.285.185,1,1,0,0,0,.346.056,1.574,1.574,0,0,0,.379-.051l.466-.131.173-.06c.058.162.213.241.467.241a1.689,1.689,0,0,0,.427-.064,3.489,3.489,0,0,0,.471-.157l-.086-.383-.157.069a.512.512,0,0,1-.171.052.217.217,0,0,1-.191-.112.48.48,0,0,1-.074-.234c0-.079,0-.156,0-.224V17.444A1.425,1.425,0,0,0,210,17a.63.63,0,0,0-.3-.337,1.376,1.376,0,0,0-.708-.148,1.862,1.862,0,0,0-.851.157,2.857,2.857,0,0,0-.38.219.73.73,0,0,0-.163.212.625.625,0,0,0-.082.311l-.009.284.734-.164a.553.553,0,0,1,.083-.31.371.371,0,0,1,.214-.169,1.159,1.159,0,0,1,.315-.038.686.686,0,0,1,.328.073.234.234,0,0,1,.138.221v.846l-.387.06a5.273,5.273,0,0,0-1.015.254.6.6,0,0,0-.388.358c-.044.15-.071.255-.083.313a.889.889,0,0,0-.017.171,1.53,1.53,0,0,0,.087.485.974.974,0,0,0,.216.387m.566-1.122a.465.465,0,0,1,.187-.19.821.821,0,0,1,.27-.1l.564-.129v1a1.685,1.685,0,0,1-.178.086,1,1,0,0,1-.17.059,1.1,1.1,0,0,1-.322.053.451.451,0,0,1-.266-.108.5.5,0,0,1-.143-.418.546.546,0,0,1,.056-.25" transform="translate(-113.829 -9.066)" fill="#fff"/>
        <path id="Trazado_8423" data-name="Trazado 8423" d="M215.318,20.144a1.787,1.787,0,0,0,.528.241,2.341,2.341,0,0,0,.544.056,2.876,2.876,0,0,0,.677-.077,3.406,3.406,0,0,0,.576-.19l-.139-.5-.43.089c-.134.032-.222.051-.269.057s-.116.008-.207.008a1.444,1.444,0,0,1-.483-.1.857.857,0,0,1-.424-.331,1.057,1.057,0,0,1-.182-.439,1.5,1.5,0,0,1-.033-.182.8.8,0,0,1-.009-.111v-.232a2.563,2.563,0,0,1,.016-.3c.012-.092.026-.184.043-.277a1.163,1.163,0,0,1,.2-.43.842.842,0,0,1,.331-.211,1.524,1.524,0,0,1,.445-.056l.337.026.363.068.173.043.163-.6a1.555,1.555,0,0,0-.221-.068c-.054-.013-.128-.027-.224-.044a2.3,2.3,0,0,0-.271-.034c-.087,0-.173-.009-.259-.009a2.313,2.313,0,0,0-.319.018,2.478,2.478,0,0,0-.3.056,1.92,1.92,0,0,0-.31.1,2.7,2.7,0,0,0-.312.168,1.321,1.321,0,0,0-.513.716,2.916,2.916,0,0,0-.186.99,2.265,2.265,0,0,0,.2.906,1.378,1.378,0,0,0,.5.648" transform="translate(-117.776 -9.076)" fill="#fff"/>
        <rect id="Rectángulo_6868" data-name="Rectángulo 6868" width="0.863" height="3.729" transform="translate(100.366 7.55)" fill="#fff"/>
        <path id="Trazado_8424" data-name="Trazado 8424" d="M222.789,13.583a.442.442,0,0,0,.347-.148.5.5,0,0,0,.132-.346.5.5,0,0,0-.479-.491.49.49,0,0,0-.351.837.475.475,0,0,0,.351.148" transform="translate(-121.987 -6.913)" fill="#fff"/>
        <path id="Trazado_8425" data-name="Trazado 8425" d="M228.613,17.089a1.685,1.685,0,0,0-.613-.421,1.655,1.655,0,0,0-.683-.147l-.276.027-.328.093a3.344,3.344,0,0,0-.483.232,1.617,1.617,0,0,0-.523.569,1.584,1.584,0,0,0-.22.81,3,3,0,0,0,.175,1.012,1.594,1.594,0,0,0,.515.754,2.832,2.832,0,0,0,.323.216,1.35,1.35,0,0,0,.28.112,1.875,1.875,0,0,0,.571.086,2.12,2.12,0,0,0,.689-.138,1.546,1.546,0,0,0,.673-.473,1.678,1.678,0,0,0,.368-.667,2.427,2.427,0,0,0,.081-.555,2.527,2.527,0,0,0-.142-.789,1.9,1.9,0,0,0-.41-.719m-.44,2.332a.746.746,0,0,1-.333.338.863.863,0,0,1-.359.1,1.023,1.023,0,0,1-.5-.192,1.28,1.28,0,0,1-.487-.7,2.75,2.75,0,0,1-.182-.918,1.142,1.142,0,0,1,.134-.54.726.726,0,0,1,.318-.337.8.8,0,0,1,.248-.088h.13a1.024,1.024,0,0,1,.6.212,1.284,1.284,0,0,1,.445.712,3.22,3.22,0,0,1,.146.882,1.55,1.55,0,0,1-.154.526" transform="translate(-123.74 -9.066)" fill="#fff"/>
        <path id="Trazado_8426" data-name="Trazado 8426" d="M237.451,16.72a1.4,1.4,0,0,0-.7-.18,2.253,2.253,0,0,0-1.2.406v-.328h-.865v3.738h.865V17.594a.818.818,0,0,1,.382-.282,1.4,1.4,0,0,1,.471-.083.792.792,0,0,1,.489.125.515.515,0,0,1,.193.334,2.32,2.32,0,0,1,.052.561v2.105H238V18a2.34,2.34,0,0,0-.116-.739.935.935,0,0,0-.436-.54" transform="translate(-128.789 -9.076)" fill="#fff"/>
        <path id="Trazado_8427" data-name="Trazado 8427" d="M246.141,19.9a.516.516,0,0,1-.173.052.216.216,0,0,1-.19-.112.471.471,0,0,1-.074-.234c0-.079,0-.156,0-.224V17.444a1.454,1.454,0,0,0-.06-.44.634.634,0,0,0-.3-.337,1.379,1.379,0,0,0-.709-.148,1.862,1.862,0,0,0-.85.157,2.838,2.838,0,0,0-.38.219.686.686,0,0,0-.164.212.63.63,0,0,0-.082.311l-.009.284.734-.164a.572.572,0,0,1,.082-.31.382.382,0,0,1,.216-.169,1.16,1.16,0,0,1,.315-.038.69.69,0,0,1,.328.073.235.235,0,0,1,.138.221v.846l-.388.06a5.275,5.275,0,0,0-1.014.254.6.6,0,0,0-.388.358c-.044.15-.071.255-.083.313a.826.826,0,0,0-.019.171,1.545,1.545,0,0,0,.088.485.979.979,0,0,0,.216.387.755.755,0,0,0,.285.185,1,1,0,0,0,.344.056,1.574,1.574,0,0,0,.381-.051l.466-.131.173-.06c.058.162.212.241.467.241a1.706,1.706,0,0,0,.426-.064,3.579,3.579,0,0,0,.471-.157l-.086-.383Zm-1.183-.25a1.739,1.739,0,0,1-.178.086.975.975,0,0,1-.17.059,1.094,1.094,0,0,1-.321.053.449.449,0,0,1-.266-.108.5.5,0,0,1-.143-.418.541.541,0,0,1,.056-.25.474.474,0,0,1,.187-.19.822.822,0,0,1,.27-.1l.565-.129Z" transform="translate(-133.387 -9.066)" fill="#fff"/>
        <rect id="Rectángulo_6869" data-name="Rectángulo 6869" width="0.865" height="6.034" transform="translate(113.091 5.245)" fill="#fff"/>
        <path id="Trazado_8428" data-name="Trazado 8428" d="M139.775,32.307a3.558,3.558,0,0,0-.584-.051,2.377,2.377,0,0,0-.8.134,1.659,1.659,0,0,0-1.02,1.059,2.764,2.764,0,0,0-.1.762v.155l.035.327a1.76,1.76,0,0,0,.185.572,1.834,1.834,0,0,0,.518.609,1.484,1.484,0,0,0,.947.285,2.322,2.322,0,0,0,.819-.181v.093h.864V30.039h-.864Zm0,3.11a1.113,1.113,0,0,1-.529.1,1.423,1.423,0,0,1-.6-.125.947.947,0,0,1-.425-.392,1.282,1.282,0,0,1-.182-.43v-.319a2.281,2.281,0,0,1,.1-.646,1.217,1.217,0,0,1,.356-.568,1.05,1.05,0,0,1,.688-.232,1.305,1.305,0,0,1,.592.145Z" transform="translate(-75.33 -16.484)" fill="#fff"/>
        <path id="Trazado_8429" data-name="Trazado 8429" d="M148.309,38.179a1.394,1.394,0,0,1-.224.061,2.065,2.065,0,0,1-.217.008,1.111,1.111,0,0,1-.6-.182.942.942,0,0,1-.4-.465,1.945,1.945,0,0,1-.107-.683h2.218l.017-.095v-.19a2.743,2.743,0,0,0-.078-.631,1.539,1.539,0,0,0-.272-.587,1,1,0,0,0-.5-.362,1.628,1.628,0,0,0-.62-.121,1.72,1.72,0,0,0-.509.077,1.887,1.887,0,0,0-.553.307,1.317,1.317,0,0,0-.437.743,4.383,4.383,0,0,0-.132,1.1,1.779,1.779,0,0,0,.222.849,1.445,1.445,0,0,0,.615.626,1.876,1.876,0,0,0,.888.209,2.8,2.8,0,0,0,.738-.1,2.89,2.89,0,0,0,.662-.263l-.172-.492a3.426,3.426,0,0,1-.545.19m-1.5-2.071a1.883,1.883,0,0,1,.069-.216.656.656,0,0,1,.315-.346.824.824,0,0,1,.29-.078.6.6,0,0,1,.361.12.523.523,0,0,1,.216.286,1.586,1.586,0,0,1,.069.553h-1.364a1.166,1.166,0,0,1,.044-.319" transform="translate(-80.066 -19.17)" fill="#fff"/>
        <path id="Trazado_8430" data-name="Trazado 8430" d="M156.739,31.873l-.261,5.2h.682l.078-4.009,1.641,4.009.6,0,1.656-4.046.052,4.044h.863l-.181-5.2h-.907l-1.664,4.118-1.676-4.118Z" transform="translate(-85.87 -17.49)" fill="#fff"/>
        <path id="Trazado_8431" data-name="Trazado 8431" d="M172.108,38.179a1.358,1.358,0,0,1-.224.061,2.069,2.069,0,0,1-.216.008,1.106,1.106,0,0,1-.6-.182.94.94,0,0,1-.4-.465,1.913,1.913,0,0,1-.108-.683h2.22l.017-.095v-.19a2.794,2.794,0,0,0-.077-.631,1.568,1.568,0,0,0-.273-.587,1.015,1.015,0,0,0-.5-.362,1.642,1.642,0,0,0-.621-.121,1.719,1.719,0,0,0-.51.077,1.9,1.9,0,0,0-.551.307,1.3,1.3,0,0,0-.436.743,4.32,4.32,0,0,0-.134,1.1,1.784,1.784,0,0,0,.222.849,1.449,1.449,0,0,0,.617.626,1.869,1.869,0,0,0,.888.209,2.813,2.813,0,0,0,.738-.1,2.921,2.921,0,0,0,.66-.263l-.173-.492a3.37,3.37,0,0,1-.544.19m-1.5-2.071a1.819,1.819,0,0,1,.068-.216.666.666,0,0,1,.316-.346.828.828,0,0,1,.289-.078.607.607,0,0,1,.364.12.525.525,0,0,1,.215.286,1.546,1.546,0,0,1,.07.553h-1.365a1.221,1.221,0,0,1,.044-.319" transform="translate(-93.125 -19.17)" fill="#fff"/>
        <path id="Trazado_8432" data-name="Trazado 8432" d="M177.324,36.594v.1a2.654,2.654,0,0,0,.056.571.608.608,0,0,0,.26.392,1.054,1.054,0,0,0,.6.139,2.143,2.143,0,0,0,.276-.018c.087-.011.176-.027.268-.042a2.348,2.348,0,0,0,.5-.154l-.172-.511a.923.923,0,0,1-.415.094.53.53,0,0,1-.371-.125.48.48,0,0,1-.138-.375V34.5h.905v-.535h-.905v-.952l-.864.234v.718H176.8V34.5h.526Z" transform="translate(-97.021 -18.117)" fill="#fff"/>
        <path id="Trazado_8433" data-name="Trazado 8433" d="M184.9,35.786l.278.021.156-.629a1.786,1.786,0,0,0-.544-.129.7.7,0,0,0-.355.1,3.822,3.822,0,0,0-.474.352v-.414h-.863V38.82h.863v-2.6l.12-.139.164-.156a.561.561,0,0,1,.195-.125.681.681,0,0,1,.264-.048Z" transform="translate(-100.475 -19.234)" fill="#fff"/>
        <path id="Trazado_8434" data-name="Trazado 8434" d="M190,34.959l-.328.1a3.5,3.5,0,0,0-.484.231,1.709,1.709,0,0,0-.74,1.379,3.017,3.017,0,0,0,.176,1.012,1.594,1.594,0,0,0,.514.754,3.168,3.168,0,0,0,.324.215,1.281,1.281,0,0,0,.281.111,1.822,1.822,0,0,0,.569.088,2.077,2.077,0,0,0,.692-.14,1.551,1.551,0,0,0,.673-.473,1.653,1.653,0,0,0,.366-.667,2.432,2.432,0,0,0,.083-.556,2.544,2.544,0,0,0-.143-.787,1.869,1.869,0,0,0-.41-.721,1.7,1.7,0,0,0-.613-.423,1.671,1.671,0,0,0-.681-.145Zm1.14,1.468a3.216,3.216,0,0,1,.148.879,1.524,1.524,0,0,1-.156.527.73.73,0,0,1-.333.337.831.831,0,0,1-.357.1,1.034,1.034,0,0,1-.506-.19,1.305,1.305,0,0,1-.487-.7,2.771,2.771,0,0,1-.182-.916,1.123,1.123,0,0,1,.135-.539.729.729,0,0,1,.319-.338.775.775,0,0,1,.246-.087h.13a1.039,1.039,0,0,1,.6.21,1.28,1.28,0,0,1,.444.714" transform="translate(-103.415 -19.17)" fill="#fff"/>
        <rect id="Rectángulo_6870" data-name="Rectángulo 6870" width="0.863" height="6.033" transform="translate(89.169 13.554)" fill="#fff"/>
        <path id="Trazado_8435" data-name="Trazado 8435" d="M204.446,37.009a2.521,2.521,0,0,0-.144-.787,1.87,1.87,0,0,0-.41-.721,1.684,1.684,0,0,0-.612-.423,1.666,1.666,0,0,0-.681-.145l-.277.026-.328.1a3.36,3.36,0,0,0-.484.231,1.706,1.706,0,0,0-.743,1.379,3.018,3.018,0,0,0,.177,1.012,1.585,1.585,0,0,0,.514.754,2.94,2.94,0,0,0,.324.215,1.265,1.265,0,0,0,.28.111,1.831,1.831,0,0,0,.57.088,2.066,2.066,0,0,0,.691-.14,1.555,1.555,0,0,0,.674-.473,1.667,1.667,0,0,0,.367-.667,2.4,2.4,0,0,0,.082-.556m-.993.825a.734.734,0,0,1-.332.337.838.838,0,0,1-.358.1,1.031,1.031,0,0,1-.506-.19,1.313,1.313,0,0,1-.488-.7,2.766,2.766,0,0,1-.18-.916,1.137,1.137,0,0,1,.134-.539.734.734,0,0,1,.319-.338.784.784,0,0,1,.246-.087h.128a1.044,1.044,0,0,1,.6.21,1.29,1.29,0,0,1,.444.714,3.188,3.188,0,0,1,.146.879,1.476,1.476,0,0,1-.155.527" transform="translate(-110.175 -19.17)" fill="#fff"/>
        <path id="Trazado_8436" data-name="Trazado 8436" d="M211.563,41.054a2.894,2.894,0,0,0,.794-.353,1.315,1.315,0,0,0,.57-.632,1.564,1.564,0,0,0,.147-.587,1.154,1.154,0,0,0-.043-.332,1.033,1.033,0,0,0-.13-.272.69.69,0,0,0-.458-.319,1.6,1.6,0,0,0-.267-.057q-.112-.012-.431-.012h-.233a3.169,3.169,0,0,1-.484-.044c-.172-.04-.273-.083-.3-.13a.179.179,0,0,1-.017-.155.354.354,0,0,1,.266-.173l.4-.111.1-.036a2.558,2.558,0,0,0,.717-.327,1.325,1.325,0,0,0,.4-.527,1.449,1.449,0,0,0,.13-.553,1.277,1.277,0,0,0-.018-.233,1.4,1.4,0,0,0-.06-.22c-.028-.083-.057-.157-.085-.224s-.065-.141-.1-.22h.621v-.552h-1.232l-.2-.027-.422-.026a1.769,1.769,0,0,0-.6.1,1.31,1.31,0,0,0-.487.311,1.408,1.408,0,0,0-.323.492,1.943,1.943,0,0,0-.114.722,1.311,1.311,0,0,0,.225.673,2.065,2.065,0,0,0,.6.509,1,1,0,0,0-.476.264.545.545,0,0,0-.165.375.557.557,0,0,0,.364.5,3.535,3.535,0,0,0-.557.482.718.718,0,0,0-.169.346l-.027.268a.983.983,0,0,0,.273.734,1.354,1.354,0,0,0,.553.35,2.149,2.149,0,0,0,.6.081,3.345,3.345,0,0,0,.647-.086m-1.115-4.546a1.429,1.429,0,0,1-.015-.228v-.19a1.147,1.147,0,0,1,.157-.415.543.543,0,0,1,.275-.2,1.071,1.071,0,0,1,.259-.043.611.611,0,0,1,.435.19,1.071,1.071,0,0,1,.27.425,1.64,1.64,0,0,1,.071.245,1.348,1.348,0,0,1,.017.23l-.035.284a.712.712,0,0,1-.159.307.526.526,0,0,1-.241.185.718.718,0,0,1-.212.034.7.7,0,0,1-.474-.172.85.85,0,0,1-.264-.362,2.244,2.244,0,0,1-.083-.29m.157,3.907a.621.621,0,0,1-.264-.273.682.682,0,0,1-.073-.271.77.77,0,0,1,.137-.389,1.188,1.188,0,0,1,.458-.388l.414.033a5.381,5.381,0,0,1,.7.1.412.412,0,0,1,.246.194.561.561,0,0,1-.083.583,1.045,1.045,0,0,1-.51.411,1.637,1.637,0,0,1-.545.108h-.1a.631.631,0,0,1-.2-.035,1.029,1.029,0,0,1-.181-.078" transform="translate(-114.961 -19.17)" fill="#fff"/>
        <path id="Trazado_8437" data-name="Trazado 8437" d="M218.962,31.992l.264.315,1.205-.991-.406-.461Z" transform="translate(-120.159 -16.931)" fill="#fff"/>
        <rect id="Rectángulo_6871" data-name="Rectángulo 6871" width="0.862" height="3.729" transform="translate(98.631 15.858)" fill="#fff"/>
        <path id="Trazado_8438" data-name="Trazado 8438" d="M224.755,38.309a.554.554,0,0,1-.173.051.214.214,0,0,1-.19-.112.479.479,0,0,1-.074-.234c0-.08,0-.155,0-.225V35.855a1.445,1.445,0,0,0-.061-.44.636.636,0,0,0-.3-.337,1.389,1.389,0,0,0-.708-.147,1.88,1.88,0,0,0-.85.156,3.154,3.154,0,0,0-.381.22.716.716,0,0,0-.163.212.625.625,0,0,0-.083.311l-.007.285.734-.165a.548.548,0,0,1,.082-.31.364.364,0,0,1,.213-.168,1.118,1.118,0,0,1,.317-.041.7.7,0,0,1,.328.074.236.236,0,0,1,.138.22v.846l-.388.061a5.329,5.329,0,0,0-1.014.254.6.6,0,0,0-.389.359c-.044.15-.07.253-.083.311a.935.935,0,0,0-.016.174,1.579,1.579,0,0,0,.084.482.986.986,0,0,0,.217.389.758.758,0,0,0,.284.185.986.986,0,0,0,.346.057,1.521,1.521,0,0,0,.38-.052l.465-.129.173-.062c.058.162.213.243.466.243a1.716,1.716,0,0,0,.428-.065,3.388,3.388,0,0,0,.471-.157l-.088-.382Zm-1.184-.251c-.053.028-.11.058-.177.086a.959.959,0,0,1-.171.061,1.115,1.115,0,0,1-.321.052.446.446,0,0,1-.265-.108.5.5,0,0,1-.143-.418.546.546,0,0,1,.056-.252.461.461,0,0,1,.185-.189.807.807,0,0,1,.271-.1l.565-.13Z" transform="translate(-121.652 -19.169)" fill="#fff"/>
        <path id="Trazado_8439" data-name="Trazado 8439" d="M139.775,50.719a3.465,3.465,0,0,0-.584-.051,2.411,2.411,0,0,0-.8.133,1.661,1.661,0,0,0-1.02,1.059,2.766,2.766,0,0,0-.1.763v.156l.035.326a1.776,1.776,0,0,0,.185.574,1.855,1.855,0,0,0,.518.608,1.489,1.489,0,0,0,.947.284,1.9,1.9,0,0,0,.44-.058,1.937,1.937,0,0,0,.379-.124v.1h.862V48.449h-.862Zm0,3.108a1.1,1.1,0,0,1-.529.1,1.419,1.419,0,0,1-.6-.126.935.935,0,0,1-.425-.39,1.305,1.305,0,0,1-.182-.431v-.319a2.26,2.26,0,0,1,.1-.644,1.217,1.217,0,0,1,.356-.569,1.053,1.053,0,0,1,.688-.233,1.319,1.319,0,0,1,.592.147Z" transform="translate(-75.33 -26.587)" fill="#fff"/>
        <path id="Trazado_8440" data-name="Trazado 8440" d="M148.309,56.592a1.3,1.3,0,0,1-.224.06,1.816,1.816,0,0,1-.217.009,1.1,1.1,0,0,1-.6-.182.932.932,0,0,1-.4-.464,1.954,1.954,0,0,1-.107-.683h2.218l.017-.094v-.19a2.72,2.72,0,0,0-.078-.629,1.563,1.563,0,0,0-.272-.588,1,1,0,0,0-.5-.362,1.637,1.637,0,0,0-.62-.121,1.678,1.678,0,0,0-.509.078,1.851,1.851,0,0,0-.553.306,1.322,1.322,0,0,0-.437.743,4.387,4.387,0,0,0-.132,1.1,1.789,1.789,0,0,0,.222.851,1.47,1.47,0,0,0,.615.627,1.907,1.907,0,0,0,.888.207,2.821,2.821,0,0,0,.738-.1,2.891,2.891,0,0,0,.662-.264l-.172-.494a3.484,3.484,0,0,1-.545.191m-1.5-2.072a2.252,2.252,0,0,1,.069-.216.66.66,0,0,1,.315-.346.812.812,0,0,1,.29-.077.6.6,0,0,1,.361.121.523.523,0,0,1,.216.283,1.6,1.6,0,0,1,.069.553h-1.364a1.2,1.2,0,0,1,.043-.319" transform="translate(-80.066 -29.274)" fill="#fff"/>
        <path id="Trazado_8441" data-name="Trazado 8441" d="M159.609,54.708c-.09.017-.178.032-.263.044l-.432.024c-.063,0-.12,0-.168,0s-.145-.016-.29-.039a4.108,4.108,0,0,1-.564-.226,1.785,1.785,0,0,1-.865-1.1c-.018-.156-.032-.282-.038-.376s-.008-.18-.008-.254a3.537,3.537,0,0,1,.129-.958,1.377,1.377,0,0,1,.4-.7,1.46,1.46,0,0,1,.545-.307,2.369,2.369,0,0,1,.629-.077l.467.034.639.113.26.051.171-.62a3.606,3.606,0,0,0-1.406-.259,3.453,3.453,0,0,0-.747.078,3.224,3.224,0,0,0-.824.328,2,2,0,0,0-.795.868,2.5,2.5,0,0,0-.328,1.178v.25a3.586,3.586,0,0,0,.213,1.2,2.085,2.085,0,0,0,.607.928,2.9,2.9,0,0,0,.414.284,2.082,2.082,0,0,0,.414.173,3.335,3.335,0,0,0,.932.121c.155,0,.289-.006.4-.017s.226-.03.34-.053a3.907,3.907,0,0,0,.7-.19l-.129-.6c-.179.046-.312.078-.4.095" transform="translate(-85.672 -27.469)" fill="#fff"/>
        <path id="Trazado_8442" data-name="Trazado 8442" d="M168.139,53.915a1.71,1.71,0,0,0-.613-.422,1.655,1.655,0,0,0-.681-.146l-.278.025-.327.1a3.4,3.4,0,0,0-.485.232,1.627,1.627,0,0,0-.522.569,1.575,1.575,0,0,0-.218.809,2.975,2.975,0,0,0,.176,1.012,1.581,1.581,0,0,0,.512.754,2.721,2.721,0,0,0,.325.214,1.091,1.091,0,0,0,.279.113,1.842,1.842,0,0,0,.57.088,2.085,2.085,0,0,0,.691-.139,1.554,1.554,0,0,0,.674-.473,1.691,1.691,0,0,0,.366-.669,2.457,2.457,0,0,0,.083-.555,2.53,2.53,0,0,0-.143-.788,1.9,1.9,0,0,0-.41-.72m-.44,2.332a.749.749,0,0,1-.333.336.849.849,0,0,1-.358.1,1.026,1.026,0,0,1-.5-.191,1.3,1.3,0,0,1-.487-.7,2.757,2.757,0,0,1-.183-.916,1.145,1.145,0,0,1,.134-.539.737.737,0,0,1,.32-.338.777.777,0,0,1,.245-.087h.13a1.034,1.034,0,0,1,.6.212,1.266,1.266,0,0,1,.444.711,3.142,3.142,0,0,1,.147.88,1.483,1.483,0,0,1-.154.527" transform="translate(-90.555 -29.275)" fill="#fff"/>
        <rect id="Rectángulo_6872" data-name="Rectángulo 6872" width="0.864" height="6.035" transform="translate(78.594 21.86)" fill="#fff"/>
        <path id="Trazado_8443" data-name="Trazado 8443" d="M180.457,53.915a1.7,1.7,0,0,0-.613-.422,1.656,1.656,0,0,0-.682-.146l-.277.025-.327.1a3.306,3.306,0,0,0-.484.232,1.614,1.614,0,0,0-.522.569,1.573,1.573,0,0,0-.221.809,2.967,2.967,0,0,0,.178,1.012,1.586,1.586,0,0,0,.513.754,2.729,2.729,0,0,0,.324.214,1.1,1.1,0,0,0,.28.113,1.845,1.845,0,0,0,.57.088,2.094,2.094,0,0,0,.691-.139,1.557,1.557,0,0,0,.674-.473,1.694,1.694,0,0,0,.366-.669,2.424,2.424,0,0,0,.082-.555,2.554,2.554,0,0,0-.143-.788,1.88,1.88,0,0,0-.41-.72m-.44,2.332a.747.747,0,0,1-.333.336.847.847,0,0,1-.358.1,1.025,1.025,0,0,1-.5-.191,1.3,1.3,0,0,1-.487-.7,2.734,2.734,0,0,1-.183-.916,1.135,1.135,0,0,1,.134-.539.722.722,0,0,1,.319-.338.8.8,0,0,1,.245-.087h.131a1.032,1.032,0,0,1,.6.212,1.26,1.26,0,0,1,.443.711,3.148,3.148,0,0,1,.148.88,1.551,1.551,0,0,1-.155.527" transform="translate(-97.313 -29.275)" fill="#fff"/>
        <path id="Trazado_8444" data-name="Trazado 8444" d="M191.3,53.532a1.264,1.264,0,0,0-.652-.186,1.944,1.944,0,0,0-1.217.56,1.12,1.12,0,0,0-.386-.435.958.958,0,0,0-.5-.126,1.729,1.729,0,0,0-.546.112c-.128.052-.241.1-.343.152s-.2.1-.282.151v-.328h-.863V57.17h.863V54.4a1.247,1.247,0,0,1,.383-.273.94.94,0,0,1,.373-.083.613.613,0,0,1,.378.122.548.548,0,0,1,.208.315,2.537,2.537,0,0,1,.049.576V57.17h.863V54.417a1.007,1.007,0,0,1,.311-.273,1.174,1.174,0,0,1,.215-.082.858.858,0,0,1,.18-.017l.226.035a.877.877,0,0,1,.228.129.5.5,0,0,1,.173.294,2.667,2.667,0,0,1,.047.57v2.1h.863V54.822a2.227,2.227,0,0,0-.129-.733,1.009,1.009,0,0,0-.445-.557" transform="translate(-102.354 -29.274)" fill="#fff"/>
        <path id="Trazado_8445" data-name="Trazado 8445" d="M202.4,50.963a1.709,1.709,0,0,0-.492-.241,1.744,1.744,0,0,0-.46-.056,2.75,2.75,0,0,0-.45.042l-.457.113V48.445H199.7v5.967c.154.032.275.058.362.068l.282.034c.1.013.2.023.315.035s.244.019.405.019a2.232,2.232,0,0,0,1.433-.416,1.253,1.253,0,0,0,.57-.946l.052-.681a2.07,2.07,0,0,0-.216-.952,1.536,1.536,0,0,0-.5-.611m-.233,2.411a1.036,1.036,0,0,1-.35.463,1.268,1.268,0,0,1-.716.16l-.311-.027-.25-.095V51.433a2.173,2.173,0,0,1,.211-.087c.026,0,.081-.017.167-.038a1.511,1.511,0,0,1,.32-.03.879.879,0,0,1,.32.051,2.777,2.777,0,0,1,.361.194.672.672,0,0,1,.294.488,2.744,2.744,0,0,1,.079.509,2.3,2.3,0,0,1-.126.854" transform="translate(-109.588 -26.585)" fill="#fff"/>
        <path id="Trazado_8446" data-name="Trazado 8446" d="M208.8,49.423a.5.5,0,0,0-.5.492.482.482,0,0,0,.147.346.475.475,0,0,0,.35.146.444.444,0,0,0,.347-.146.5.5,0,0,0,.134-.346.5.5,0,0,0-.48-.492" transform="translate(-114.311 -27.122)" fill="#fff"/>
        <rect id="Rectángulo_6873" data-name="Rectángulo 6873" width="0.863" height="3.728" transform="translate(94.055 24.167)" fill="#fff"/>
        <path id="Trazado_8447" data-name="Trazado 8447" d="M214.614,56.723a.532.532,0,0,1-.173.051.213.213,0,0,1-.189-.113.451.451,0,0,1-.074-.232c0-.082,0-.156,0-.225V54.27a1.462,1.462,0,0,0-.06-.44.655.655,0,0,0-.3-.336,1.385,1.385,0,0,0-.708-.147,1.861,1.861,0,0,0-.85.156,2.775,2.775,0,0,0-.38.22.711.711,0,0,0-.164.213.614.614,0,0,0-.083.31l-.008.284.734-.165a.568.568,0,0,1,.081-.309.377.377,0,0,1,.216-.169,1.115,1.115,0,0,1,.314-.038.692.692,0,0,1,.329.072.236.236,0,0,1,.139.22v.846l-.389.06a5.387,5.387,0,0,0-1.015.254.6.6,0,0,0-.386.359c-.044.15-.071.253-.082.311a.806.806,0,0,0-.018.173,1.554,1.554,0,0,0,.085.483.976.976,0,0,0,.217.389.732.732,0,0,0,.284.185.972.972,0,0,0,.344.058,1.543,1.543,0,0,0,.38-.053l.467-.129.172-.061c.056.161.214.243.466.243a1.755,1.755,0,0,0,.429-.066,3.34,3.34,0,0,0,.469-.156l-.087-.384Zm-1.182-.251a1.578,1.578,0,0,1-.178.083.965.965,0,0,1-.169.061,1.129,1.129,0,0,1-.323.053.463.463,0,0,1-.266-.108.5.5,0,0,1-.143-.419.546.546,0,0,1,.056-.25.487.487,0,0,1,.188-.191.86.86,0,0,1,.27-.1l.564-.128Z" transform="translate(-116.087 -29.274)" fill="#fff"/>
        <path id="Trazado_8448" data-name="Trazado 8448" d="M42.413,53.719h-.258v2.27H40.509V54.255h-.258v1.734H38.6V52.564h-.256v3.425H36.7V54.255h-.256v1.734H34.8v-2.27H34.54v2.27H32.892V54.255h-.257v1.734H30.987v-2.27H30.73v2.27H29.074V54.255h-.258v1.734H27.179v-2.27h-.257v2.27H25.276V54.255h-.257v1.734H23.37v-2.27h-.257v2.27H21.466V54.255h-.257v1.734H19.562V52.564h-.256v3.425H17.658V54.255H17.4v1.734H15.754v-2.27H15.5v2.27H13.85V54.255h-.258v1.734H11.945v-2.27h-.257v2.27H10.042V54.255H9.785v1.734H8.136v-2.27H7.881v2.27H6.233V54.255H5.976v1.734H4.329v-2.27H4.071v2.27H2.458V54.255H2.2v1.734H.466V52.564H.23v4.063H29.063v-.638h0v.638h14.21v-.638h-.861Z" transform="translate(-0.126 -28.845)" fill="#fff"/>
        <path id="Trazado_8449" data-name="Trazado 8449" d="M109.772,55.989H108.09V54.255h-.258v1.734h-1.648v-2.27h-.256v2.27h-1.647V54.255h-.257v1.734h-1.647v-2.27h-.257v2.27h-1.647V54.255h-.258v1.734H98.567v-2.27h-.256v2.27H96.665V54.255h-.257v1.734H95.62v.638h14.388V52.564h-.236Z" transform="translate(-52.473 -28.845)" fill="#fff"/>
        <path id="Trazado_8450" data-name="Trazado 8450" d="M2.176,4.352A2.176,2.176,0,1,0,0,2.175,2.176,2.176,0,0,0,2.176,4.352" transform="translate(0 0)" fill="#fff"/>
        <path id="Trazado_8451" data-name="Trazado 8451" d="M21.274,14.66s11.88,13.207,12.089,13.431a11.363,11.363,0,0,0,.919.883,4.545,4.545,0,0,0,1.974.792,8,8,0,0,0,.92.1c.13.006.778,0,.9,0a3.942,3.942,0,0,0,.812-.1,3.06,3.06,0,0,0,2.138-1.872,3.929,3.929,0,0,0,.193-.8c.052-.315.077-1,.077-1L41.3,14.61s7.812,13.254,8.06,13.677a3.116,3.116,0,0,0,5.325.1c2.4-3.844,8.107-13.73,8.107-13.73V29.865h4.144V14.66q-.07-3.461-4.144-3.46a4.058,4.058,0,0,0-3.458,2.073L52.06,25.715,44.788,13.273A4.057,4.057,0,0,0,41.329,11.2q-4.143,0-4.143,3.46l-.019,11.825-12.435-13.9A4.706,4.706,0,0,0,21.274,11.2q-4.143,0-4.144,3.46V29.865h4.144Z" transform="translate(-9.4 -6.146)" fill="#fff"/>
        <rect id="Rectángulo_6874" data-name="Rectángulo 6874" width="4.144" height="18.665" transform="translate(0.104 5.054)" fill="#fff"/>
      </g>
    </g>
  </g>
</svg>
